<svg id="visual" viewBox="0 0 900 600" width="900" height="600" xmlns="http://www.w3.org/2000/svg" xmlns:xlink="http://www.w3.org/1999/xlink" version="1.1"><g stroke-width="1" stroke-linejoin="bevel"><path d="M483.9 295L563.7 291L504.9 239Z" fill="#e9f2f7" stroke="#e9f2f7"></path><path d="M563.7 291L553.7 225L504.9 239Z" fill="#c2dcf0" stroke="#c2dcf0"></path><path d="M483.9 295L477.9 356L563.7 291Z" fill="#d5e7f3" stroke="#d5e7f3"></path><path d="M412.1 244L416.1 281L483.9 295Z" fill="#c8e0f1" stroke="#c8e0f1"></path><path d="M483.9 295L416.1 281L477.9 356Z" fill="#bbd9ef" stroke="#bbd9ef"></path><path d="M497.9 151L412.1 244L504.9 239Z" fill="#e2eef6" stroke="#e2eef6"></path><path d="M504.9 239L412.1 244L483.9 295Z" fill="#f7f9fa" stroke="#f7f9fa"></path><path d="M477.9 356L576.7 389L563.7 291Z" fill="#f7f9fa" stroke="#f7f9fa"></path><path d="M553.7 225L497.9 151L504.9 239Z" fill="#e9f2f7" stroke="#e9f2f7"></path><path d="M646.5 226L562.7 150L553.7 225Z" fill="#f7f9fa" stroke="#f7f9fa"></path><path d="M553.7 225L562.7 150L497.9 151Z" fill="#dcebf4" stroke="#dcebf4"></path><path d="M646.5 226L553.7 225L563.7 291Z" fill="#bbd9ef" stroke="#bbd9ef"></path><path d="M665.5 293L646.5 226L563.7 291Z" fill="#f0f5f8" stroke="#f0f5f8"></path><path d="M651.5 382L665.5 293L563.7 291Z" fill="#c8e0f1" stroke="#c8e0f1"></path><path d="M576.7 389L651.5 382L563.7 291Z" fill="#b5d5ee" stroke="#b5d5ee"></path><path d="M491.9 450L565.7 444L576.7 389Z" fill="#e2eef6" stroke="#e2eef6"></path><path d="M576.7 389L565.7 444L651.5 382Z" fill="#e2eef6" stroke="#e2eef6"></path><path d="M742.4 241L652.5 160L646.5 226Z" fill="#bbd9ef" stroke="#bbd9ef"></path><path d="M646.5 226L652.5 160L562.7 150Z" fill="#cee3f2" stroke="#cee3f2"></path><path d="M391.1 393L491.9 450L477.9 356Z" fill="#f7f9fa" stroke="#f7f9fa"></path><path d="M477.9 356L491.9 450L576.7 389Z" fill="#cee3f2" stroke="#cee3f2"></path><path d="M320.3 298L391.1 393L416.1 281Z" fill="#d5e7f3" stroke="#d5e7f3"></path><path d="M416.1 281L391.1 393L477.9 356Z" fill="#b5d5ee" stroke="#b5d5ee"></path><path d="M488.9 90L389.1 146L497.9 151Z" fill="#bbd9ef" stroke="#bbd9ef"></path><path d="M497.9 151L389.1 146L412.1 244Z" fill="#e2eef6" stroke="#e2eef6"></path><path d="M412.1 244L338.3 232L416.1 281Z" fill="#f7f9fa" stroke="#f7f9fa"></path><path d="M389.1 146L338.3 232L412.1 244Z" fill="#bbd9ef" stroke="#bbd9ef"></path><path d="M586.7 57L488.9 90L562.7 150Z" fill="#f0f5f8" stroke="#f0f5f8"></path><path d="M562.7 150L488.9 90L497.9 151Z" fill="#bbd9ef" stroke="#bbd9ef"></path><path d="M743.4 364L723.4 279L665.5 293Z" fill="#b5d5ee" stroke="#b5d5ee"></path><path d="M665.5 293L723.4 279L646.5 226Z" fill="#c8e0f1" stroke="#c8e0f1"></path><path d="M338.3 232L320.3 298L416.1 281Z" fill="#b5d5ee" stroke="#b5d5ee"></path><path d="M723.4 279L742.4 241L646.5 226Z" fill="#bbd9ef" stroke="#bbd9ef"></path><path d="M651.5 74L562.7 150L652.5 160Z" fill="#dcebf4" stroke="#dcebf4"></path><path d="M651.5 74L586.7 57L562.7 150Z" fill="#d5e7f3" stroke="#d5e7f3"></path><path d="M327.3 465L388.1 465L391.1 393Z" fill="#c2dcf0" stroke="#c2dcf0"></path><path d="M391.1 393L388.1 465L491.9 450Z" fill="#f7f9fa" stroke="#f7f9fa"></path><path d="M641.5 521L670.5 467L565.7 444Z" fill="#c8e0f1" stroke="#c8e0f1"></path><path d="M320.3 298L316.3 391L391.1 393Z" fill="#c8e0f1" stroke="#c8e0f1"></path><path d="M730.4 462L743.4 364L651.5 382Z" fill="#c2dcf0" stroke="#c2dcf0"></path><path d="M651.5 382L743.4 364L665.5 293Z" fill="#f0f5f8" stroke="#f0f5f8"></path><path d="M829.2 302L808.2 208L742.4 241Z" fill="#dcebf4" stroke="#dcebf4"></path><path d="M488.9 90L414.1 65L389.1 146Z" fill="#bbd9ef" stroke="#bbd9ef"></path><path d="M389.1 146L310.3 142L338.3 232Z" fill="#e2eef6" stroke="#e2eef6"></path><path d="M497.9 0L414.1 65L488.9 90Z" fill="#f0f5f8" stroke="#f0f5f8"></path><path d="M556.7 525L565.7 444L491.9 450Z" fill="#e9f2f7" stroke="#e9f2f7"></path><path d="M565.7 444L670.5 467L651.5 382Z" fill="#bbd9ef" stroke="#bbd9ef"></path><path d="M737.4 132L651.5 74L652.5 160Z" fill="#cee3f2" stroke="#cee3f2"></path><path d="M388.1 465L483.9 522L491.9 450Z" fill="#c8e0f1" stroke="#c8e0f1"></path><path d="M483.9 522L556.7 525L491.9 450Z" fill="#d5e7f3" stroke="#d5e7f3"></path><path d="M320.3 70L310.3 142L389.1 146Z" fill="#b5d5ee" stroke="#b5d5ee"></path><path d="M228.5 232L242.5 301L320.3 298Z" fill="#bbd9ef" stroke="#bbd9ef"></path><path d="M320.3 298L252.5 380L316.3 391Z" fill="#c2dcf0" stroke="#c2dcf0"></path><path d="M742.4 241L737.4 132L652.5 160Z" fill="#bbd9ef" stroke="#bbd9ef"></path><path d="M556.7 525L641.5 521L565.7 444Z" fill="#dcebf4" stroke="#dcebf4"></path><path d="M670.5 467L730.4 462L651.5 382Z" fill="#f0f5f8" stroke="#f0f5f8"></path><path d="M316.3 391L327.3 465L391.1 393Z" fill="#d5e7f3" stroke="#d5e7f3"></path><path d="M388.1 465L390.1 520L483.9 522Z" fill="#bbd9ef" stroke="#bbd9ef"></path><path d="M345.3 521L390.1 520L388.1 465Z" fill="#f7f9fa" stroke="#f7f9fa"></path><path d="M483.9 522L473.9 600L556.7 525Z" fill="#cee3f2" stroke="#cee3f2"></path><path d="M719.4 542L730.4 462L670.5 467Z" fill="#f7f9fa" stroke="#f7f9fa"></path><path d="M588.7 0L497.9 0L586.7 57Z" fill="#bbd9ef" stroke="#bbd9ef"></path><path d="M586.7 57L497.9 0L488.9 90Z" fill="#f0f5f8" stroke="#f0f5f8"></path><path d="M238.5 94L262.5 169L310.3 142Z" fill="#cee3f2" stroke="#cee3f2"></path><path d="M228.5 232L320.3 298L338.3 232Z" fill="#b5d5ee" stroke="#b5d5ee"></path><path d="M316.3 391L228.5 437L327.3 465Z" fill="#bbd9ef" stroke="#bbd9ef"></path><path d="M320.3 70L389.1 146L414.1 65Z" fill="#e2eef6" stroke="#e2eef6"></path><path d="M310.3 142L262.5 169L338.3 232Z" fill="#e2eef6" stroke="#e2eef6"></path><path d="M655.5 0L586.7 57L651.5 74Z" fill="#cee3f2" stroke="#cee3f2"></path><path d="M655.5 0L588.7 0L586.7 57Z" fill="#b5d5ee" stroke="#b5d5ee"></path><path d="M242.5 301L252.5 380L320.3 298Z" fill="#c8e0f1" stroke="#c8e0f1"></path><path d="M399.1 0L320.3 70L414.1 65Z" fill="#d5e7f3" stroke="#d5e7f3"></path><path d="M742.4 241L808.2 208L737.4 132Z" fill="#d5e7f3" stroke="#d5e7f3"></path><path d="M829.2 302L742.4 241L723.4 279Z" fill="#bbd9ef" stroke="#bbd9ef"></path><path d="M829.2 302L723.4 279L743.4 364Z" fill="#c8e0f1" stroke="#c8e0f1"></path><path d="M802.2 141L754.4 95L737.4 132Z" fill="#f0f5f8" stroke="#f0f5f8"></path><path d="M737.4 132L754.4 95L651.5 74Z" fill="#e9f2f7" stroke="#e9f2f7"></path><path d="M730.4 462L803.2 374L743.4 364Z" fill="#b5d5ee" stroke="#b5d5ee"></path><path d="M262.5 169L228.5 232L338.3 232Z" fill="#dcebf4" stroke="#dcebf4"></path><path d="M183.6 387L228.5 437L252.5 380Z" fill="#cee3f2" stroke="#cee3f2"></path><path d="M236.5 540L345.3 521L327.3 465Z" fill="#f0f5f8" stroke="#f0f5f8"></path><path d="M327.3 465L345.3 521L388.1 465Z" fill="#f7f9fa" stroke="#f7f9fa"></path><path d="M414.1 600L473.9 600L483.9 522Z" fill="#f7f9fa" stroke="#f7f9fa"></path><path d="M497.9 0L399.1 0L414.1 65Z" fill="#c8e0f1" stroke="#c8e0f1"></path><path d="M803.2 374L829.2 302L743.4 364Z" fill="#c2dcf0" stroke="#c2dcf0"></path><path d="M729.4 0L655.5 0L651.5 74Z" fill="#c2dcf0" stroke="#c2dcf0"></path><path d="M808.2 208L802.2 141L737.4 132Z" fill="#bbd9ef" stroke="#bbd9ef"></path><path d="M821.2 85L802.2 141L900 163Z" fill="#e9f2f7" stroke="#e9f2f7"></path><path d="M414.1 600L483.9 522L390.1 520Z" fill="#b5d5ee" stroke="#b5d5ee"></path><path d="M556.7 525L584.7 600L641.5 521Z" fill="#bbd9ef" stroke="#bbd9ef"></path><path d="M473.9 600L584.7 600L556.7 525Z" fill="#f7f9fa" stroke="#f7f9fa"></path><path d="M641.5 521L719.4 542L670.5 467Z" fill="#f0f5f8" stroke="#f0f5f8"></path><path d="M653.5 600L719.4 542L641.5 521Z" fill="#e9f2f7" stroke="#e9f2f7"></path><path d="M730.4 462L836.2 469L803.2 374Z" fill="#bbd9ef" stroke="#bbd9ef"></path><path d="M183.6 387L252.5 380L242.5 301Z" fill="#f0f5f8" stroke="#f0f5f8"></path><path d="M252.5 380L228.5 437L316.3 391Z" fill="#dcebf4" stroke="#dcebf4"></path><path d="M225.5 0L238.5 94L320.3 70Z" fill="#f7f9fa" stroke="#f7f9fa"></path><path d="M320.3 70L238.5 94L310.3 142Z" fill="#bbd9ef" stroke="#bbd9ef"></path><path d="M177.6 150L165.6 238L228.5 232Z" fill="#f0f5f8" stroke="#f0f5f8"></path><path d="M345.3 521L414.1 600L390.1 520Z" fill="#f7f9fa" stroke="#f7f9fa"></path><path d="M312.3 600L414.1 600L345.3 521Z" fill="#f7f9fa" stroke="#f7f9fa"></path><path d="M754.4 95L729.4 0L651.5 74Z" fill="#cee3f2" stroke="#cee3f2"></path><path d="M821.2 85L729.4 0L754.4 95Z" fill="#d5e7f3" stroke="#d5e7f3"></path><path d="M584.7 600L653.5 600L641.5 521Z" fill="#f0f5f8" stroke="#f0f5f8"></path><path d="M399.1 0L313.3 0L320.3 70Z" fill="#d5e7f3" stroke="#d5e7f3"></path><path d="M228.5 232L172.6 280L242.5 301Z" fill="#bbd9ef" stroke="#bbd9ef"></path><path d="M165.6 238L172.6 280L228.5 232Z" fill="#cee3f2" stroke="#cee3f2"></path><path d="M900 163L802.2 141L808.2 208Z" fill="#cee3f2" stroke="#cee3f2"></path><path d="M802.2 141L821.2 85L754.4 95Z" fill="#c2dcf0" stroke="#c2dcf0"></path><path d="M172.6 280L183.6 387L242.5 301Z" fill="#cee3f2" stroke="#cee3f2"></path><path d="M177.6 150L228.5 232L262.5 169Z" fill="#e2eef6" stroke="#e2eef6"></path><path d="M95.8 452L159.6 457L183.6 387Z" fill="#b5d5ee" stroke="#b5d5ee"></path><path d="M835.2 505L836.2 469L730.4 462Z" fill="#e9f2f7" stroke="#e9f2f7"></path><path d="M900 373L900 286L829.2 302Z" fill="#c2dcf0" stroke="#c2dcf0"></path><path d="M829.2 302L900 237L808.2 208Z" fill="#b5d5ee" stroke="#b5d5ee"></path><path d="M835.2 505L730.4 462L719.4 542Z" fill="#c2dcf0" stroke="#c2dcf0"></path><path d="M238.5 94L177.6 150L262.5 169Z" fill="#c2dcf0" stroke="#c2dcf0"></path><path d="M172.6 60L177.6 150L238.5 94Z" fill="#d5e7f3" stroke="#d5e7f3"></path><path d="M900 373L829.2 302L803.2 374Z" fill="#f7f9fa" stroke="#f7f9fa"></path><path d="M900 286L900 237L829.2 302Z" fill="#d5e7f3" stroke="#d5e7f3"></path><path d="M236.5 540L327.3 465L228.5 437Z" fill="#cee3f2" stroke="#cee3f2"></path><path d="M236.5 540L312.3 600L345.3 521Z" fill="#cee3f2" stroke="#cee3f2"></path><path d="M653.5 600L735.4 600L719.4 542Z" fill="#c2dcf0" stroke="#c2dcf0"></path><path d="M837.2 600L835.2 505L719.4 542Z" fill="#cee3f2" stroke="#cee3f2"></path><path d="M900 442L900 373L803.2 374Z" fill="#c8e0f1" stroke="#c8e0f1"></path><path d="M165.6 513L236.5 540L228.5 437Z" fill="#e2eef6" stroke="#e2eef6"></path><path d="M900 442L803.2 374L836.2 469Z" fill="#dcebf4" stroke="#dcebf4"></path><path d="M900 237L900 163L808.2 208Z" fill="#b5d5ee" stroke="#b5d5ee"></path><path d="M95.8 294L183.6 387L172.6 280Z" fill="#b5d5ee" stroke="#b5d5ee"></path><path d="M183.6 387L159.6 457L228.5 437Z" fill="#b5d5ee" stroke="#b5d5ee"></path><path d="M313.3 0L225.5 0L320.3 70Z" fill="#d5e7f3" stroke="#d5e7f3"></path><path d="M900 508L900 442L836.2 469Z" fill="#f7f9fa" stroke="#f7f9fa"></path><path d="M225.5 0L172.6 60L238.5 94Z" fill="#c2dcf0" stroke="#c2dcf0"></path><path d="M74.8 239L95.8 294L165.6 238Z" fill="#bbd9ef" stroke="#bbd9ef"></path><path d="M900 56L836.2 0L821.2 85Z" fill="#f7f9fa" stroke="#f7f9fa"></path><path d="M821.2 85L836.2 0L729.4 0Z" fill="#bbd9ef" stroke="#bbd9ef"></path><path d="M165.6 238L95.8 294L172.6 280Z" fill="#f0f5f8" stroke="#f0f5f8"></path><path d="M74.8 239L165.6 238L71.8 145Z" fill="#e2eef6" stroke="#e2eef6"></path><path d="M159.6 457L165.6 513L228.5 437Z" fill="#dcebf4" stroke="#dcebf4"></path><path d="M236.5 540L225.5 600L312.3 600Z" fill="#bbd9ef" stroke="#bbd9ef"></path><path d="M95.8 452L165.6 513L159.6 457Z" fill="#f7f9fa" stroke="#f7f9fa"></path><path d="M900 163L900 56L821.2 85Z" fill="#c2dcf0" stroke="#c2dcf0"></path><path d="M152.6 600L225.5 600L236.5 540Z" fill="#f7f9fa" stroke="#f7f9fa"></path><path d="M837.2 600L900 508L835.2 505Z" fill="#e9f2f7" stroke="#e9f2f7"></path><path d="M835.2 505L900 508L836.2 469Z" fill="#f7f9fa" stroke="#f7f9fa"></path><path d="M71.8 145L165.6 238L177.6 150Z" fill="#e2eef6" stroke="#e2eef6"></path><path d="M65.8 363L95.8 452L183.6 387Z" fill="#d5e7f3" stroke="#d5e7f3"></path><path d="M735.4 600L837.2 600L719.4 542Z" fill="#d5e7f3" stroke="#d5e7f3"></path><path d="M225.5 0L157.6 0L172.6 60Z" fill="#f7f9fa" stroke="#f7f9fa"></path><path d="M172.6 60L71.8 145L177.6 150Z" fill="#b5d5ee" stroke="#b5d5ee"></path><path d="M65.8 363L183.6 387L95.8 294Z" fill="#f7f9fa" stroke="#f7f9fa"></path><path d="M165.6 513L152.6 600L236.5 540Z" fill="#cee3f2" stroke="#cee3f2"></path><path d="M0 293L65.8 363L95.8 294Z" fill="#c2dcf0" stroke="#c2dcf0"></path><path d="M900 56L900 0L836.2 0Z" fill="#e9f2f7" stroke="#e9f2f7"></path><path d="M67.8 63L71.8 145L172.6 60Z" fill="#e9f2f7" stroke="#e9f2f7"></path><path d="M74.8 239L0 293L95.8 294Z" fill="#c8e0f1" stroke="#c8e0f1"></path><path d="M82.8 600L152.6 600L165.6 513Z" fill="#b5d5ee" stroke="#b5d5ee"></path><path d="M837.2 600L900 600L900 508Z" fill="#b5d5ee" stroke="#b5d5ee"></path><path d="M157.6 0L67.8 63L172.6 60Z" fill="#bbd9ef" stroke="#bbd9ef"></path><path d="M0 225L0 293L74.8 239Z" fill="#d5e7f3" stroke="#d5e7f3"></path><path d="M0 453L61.8 512L95.8 452Z" fill="#f0f5f8" stroke="#f0f5f8"></path><path d="M95.8 452L61.8 512L165.6 513Z" fill="#c2dcf0" stroke="#c2dcf0"></path><path d="M0 453L95.8 452L65.8 363Z" fill="#f7f9fa" stroke="#f7f9fa"></path><path d="M0 225L74.8 239L0 162Z" fill="#e9f2f7" stroke="#e9f2f7"></path><path d="M0 162L74.8 239L71.8 145Z" fill="#f7f9fa" stroke="#f7f9fa"></path><path d="M0 293L0 363L65.8 363Z" fill="#c8e0f1" stroke="#c8e0f1"></path><path d="M157.6 0L67.8 0L67.8 63Z" fill="#cee3f2" stroke="#cee3f2"></path><path d="M0 71L0 162L71.8 145Z" fill="#b5d5ee" stroke="#b5d5ee"></path><path d="M0 71L71.8 145L67.8 63Z" fill="#d5e7f3" stroke="#d5e7f3"></path><path d="M61.8 512L82.8 600L165.6 513Z" fill="#c8e0f1" stroke="#c8e0f1"></path><path d="M0 531L82.8 600L61.8 512Z" fill="#c8e0f1" stroke="#c8e0f1"></path><path d="M0 363L0 453L65.8 363Z" fill="#b5d5ee" stroke="#b5d5ee"></path><path d="M0 0L0 71L67.8 63Z" fill="#d5e7f3" stroke="#d5e7f3"></path><path d="M0 453L0 531L61.8 512Z" fill="#e2eef6" stroke="#e2eef6"></path><path d="M67.8 0L0 0L67.8 63Z" fill="#f7f9fa" stroke="#f7f9fa"></path><path d="M0 531L0 600L82.8 600Z" fill="#f7f9fa" stroke="#f7f9fa"></path></g></svg>